Input #0, mov,mp4,m4a,3gp,3g2,mj2, from 'C:\Users\sulta\OneDrive - Invesense Asset Management Limited\Documents\remotion\benchmarks\.cache\source\whatsapp-video-2026-05-17-at-45040-am-e639833d.mp4':
  Metadata:
    major_brand     : mp42
    minor_version   : 0
    compatible_brands: mp42isom
  Duration: 00:01:43.97, start: 0.000000, bitrate: 806 kb/s
  Stream #0:0[0x1](und): Video: h264 (Baseline) (avc1 / 0x31637661), yuv420p(tv, bt709, progressive), 576x1024, 742 kb/s, 30 fps, 30 tbr, 600 tbn (default)
  Stream #0:1[0x2](und): Audio: aac (LC) (mp4a / 0x6134706D), 44100 Hz, stereo, fltp, 62 kb/s (default)
Stream mapping:
  Stream #0:0 -> #0:0 (h264 (native) -> wrapped_avframe (native))
Press [q] to stop, [?] for help
Output #0, null, to 'NUL':
  Metadata:
    major_brand     : mp42
    minor_version   : 0
    compatible_brands: mp42isom
    encoder         : Lavf62.12.101
  Stream #0:0(und): Video: wrapped_avframe, yuv420p(tv, bt709, progressive), 576x1024, q=2-31, 200 kb/s, 30 fps, 30 tbn (default)
    Metadata:
      encoder         : Lavc62.28.101 wrapped_avframe
[Parsed_scdet_0 @ 0000020ec87e1b80] lavfi.scd.score: 74.202, lavfi.scd.time: 0.8
[Parsed_scdet_0 @ 0000020ec87e1b80] lavfi.scd.score: 85.021, lavfi.scd.time: 0.9
[Parsed_scdet_0 @ 0000020ec87e1b80] lavfi.scd.score: 24.448, lavfi.scd.time: 19.033333
[Parsed_scdet_0 @ 0000020ec87e1b80] lavfi.scd.score: 12.450, lavfi.scd.time: 19.066667
[Parsed_scdet_0 @ 0000020ec87e1b80] lavfi.scd.score: 17.101, lavfi.scd.time: 19.233333
[Parsed_scdet_0 @ 0000020ec87e1b80] lavfi.scd.score: 69.627, lavfi.scd.time: 31.7
[Parsed_scdet_0 @ 0000020ec87e1b80] lavfi.scd.score: 63.964, lavfi.scd.time: 47
[Parsed_scdet_0 @ 0000020ec87e1b80] lavfi.scd.score: 68.502, lavfi.scd.time: 75.066667
[Parsed_scdet_0 @ 0000020ec87e1b80] lavfi.scd.score: 66.239, lavfi.scd.time: 79.4
[Parsed_scdet_0 @ 0000020ec87e1b80] lavfi.scd.score: 76.820, lavfi.scd.time: 95.533333
[Parsed_scdet_0 @ 0000020ec87e1b80] lavfi.scd.score: 77.008, lavfi.scd.time: 98.533333
[out#0/null @ 0000020ec87e1300] video:1291KiB audio:0KiB subtitle:0KiB other streams:0KiB global headers:0KiB muxing overhead: unknown
frame= 3119 fps=0.0 q=-0.0 Lsize=N/A time=00:01:43.96 bitrate=N/A speed= 480x elapsed=0:00:00.21    
